<?xml version="1.0" encoding="UTF-8" standalone="no"?>
<!DOCTYPE svg PUBLIC "-//W3C//DTD SVG 1.1//EN"
 "http://www.w3.org/Graphics/SVG/1.1/DTD/svg11.dtd">
<!-- Generated by graphviz version 2.40.1 (20161225.0304)
 -->
<!-- Title: UmlClassDiagram Pages: 1 -->
<svg width="4601pt" height="514pt"
 viewBox="0.00 0.00 4601.47 514.00" xmlns="http://www.w3.org/2000/svg" xmlns:xlink="http://www.w3.org/1999/xlink">
<g id="graph0" class="graph" transform="scale(1 1) rotate(0) translate(4 510)">
<title>UmlClassDiagram</title>
<polygon fill="#ffffff" stroke="transparent" points="-4,4 -4,-510 4597.4665,-510 4597.4665,4 -4,4"/>
<!-- 0 -->
<g id="node1" class="node">
<title>0</title>
<polygon fill="#f2f2f2" stroke="#000000" points="0,-59.3 0,-150.5 146.6186,-150.5 146.6186,-59.3 0,-59.3"/>
<text text-anchor="middle" x="73.3093" y="-133.9" font-family="Times,serif" font-size="14.00" fill="#000000">&lt;&lt;Interface&gt;&gt;</text>
<text text-anchor="middle" x="73.3093" y="-117.1" font-family="Times,serif" font-size="14.00" fill="#000000">IRigoblockGovernance</text>
<polyline fill="none" stroke="#000000" points="0,-108.9 146.6186,-108.9 "/>
<text text-anchor="middle" x="73.3093" y="-92.3" font-family="Times,serif" font-size="14.00" fill="#000000"> </text>
<polyline fill="none" stroke="#000000" points="0,-84.1 146.6186,-84.1 "/>
<text text-anchor="middle" x="73.3093" y="-67.5" font-family="Times,serif" font-size="14.00" fill="#000000"> </text>
</g>
<!-- 1 -->
<g id="node2" class="node">
<title>1</title>
<polygon fill="#f2f2f2" stroke="#000000" points="164.5395,-8.9 164.5395,-200.9 1268.0791,-200.9 1268.0791,-8.9 164.5395,-8.9"/>
<text text-anchor="middle" x="716.3093" y="-184.3" font-family="Times,serif" font-size="14.00" fill="#000000">&lt;&lt;Interface&gt;&gt;</text>
<text text-anchor="middle" x="716.3093" y="-167.5" font-family="Times,serif" font-size="14.00" fill="#000000">IGovernanceEvents</text>
<polyline fill="none" stroke="#000000" points="164.5395,-159.3 1268.0791,-159.3 "/>
<text text-anchor="middle" x="716.3093" y="-142.7" font-family="Times,serif" font-size="14.00" fill="#000000"> </text>
<polyline fill="none" stroke="#000000" points="164.5395,-134.5 1268.0791,-134.5 "/>
<text text-anchor="start" x="172.5395" y="-117.9" font-family="Times,serif" font-size="14.00" fill="#000000">Public:</text>
<text text-anchor="start" x="172.5395" y="-101.1" font-family="Times,serif" font-size="14.00" fill="#000000"> &#160;&#160;&#160;&lt;&lt;event&gt;&gt; ProposalCreated(proposer: address, proposalId: uint256, actions: IGovernanceVoting.ProposedAction[], startBlockOrTime: uint256, endBlockOrTime: uint256, description: string)</text>
<text text-anchor="start" x="172.5395" y="-84.3" font-family="Times,serif" font-size="14.00" fill="#000000"> &#160;&#160;&#160;&lt;&lt;event&gt;&gt; ProposalExecuted(proposalId: uint256)</text>
<text text-anchor="start" x="172.5395" y="-67.5" font-family="Times,serif" font-size="14.00" fill="#000000"> &#160;&#160;&#160;&lt;&lt;event&gt;&gt; StrategyUpgraded(newStrategy: address)</text>
<text text-anchor="start" x="172.5395" y="-50.7" font-family="Times,serif" font-size="14.00" fill="#000000"> &#160;&#160;&#160;&lt;&lt;event&gt;&gt; ThresholdsUpdated(proposalThreshold: uint256, quorumThreshold: uint256)</text>
<text text-anchor="start" x="172.5395" y="-33.9" font-family="Times,serif" font-size="14.00" fill="#000000"> &#160;&#160;&#160;&lt;&lt;event&gt;&gt; Upgraded(newImplementation: address)</text>
<text text-anchor="start" x="172.5395" y="-17.1" font-family="Times,serif" font-size="14.00" fill="#000000"> &#160;&#160;&#160;&lt;&lt;event&gt;&gt; VoteCast(voter: address, proposalId: uint256, voteType: IGovernanceVoting.VoteType, votingPower: uint256)</text>
</g>
<!-- 2 -->
<g id="node3" class="node">
<title>2</title>
<polygon fill="#f2f2f2" stroke="#000000" points="1285.5922,-50.9 1285.5922,-158.9 1445.0264,-158.9 1445.0264,-50.9 1285.5922,-50.9"/>
<text text-anchor="middle" x="1365.3093" y="-142.3" font-family="Times,serif" font-size="14.00" fill="#000000">&lt;&lt;Interface&gt;&gt;</text>
<text text-anchor="middle" x="1365.3093" y="-125.5" font-family="Times,serif" font-size="14.00" fill="#000000">IGovernanceInitializer</text>
<polyline fill="none" stroke="#000000" points="1285.5922,-117.3 1445.0264,-117.3 "/>
<text text-anchor="middle" x="1365.3093" y="-100.7" font-family="Times,serif" font-size="14.00" fill="#000000"> </text>
<polyline fill="none" stroke="#000000" points="1285.5922,-92.5 1445.0264,-92.5 "/>
<text text-anchor="start" x="1293.5922" y="-75.9" font-family="Times,serif" font-size="14.00" fill="#000000">External:</text>
<text text-anchor="start" x="1293.5922" y="-59.1" font-family="Times,serif" font-size="14.00" fill="#000000"> &#160;&#160;&#160;&#160;initializeGovernance()</text>
</g>
<!-- 3 -->
<g id="node4" class="node">
<title>3</title>
<polygon fill="#f2f2f2" stroke="#000000" points="2071.9666,-246.3 2071.9666,-505.5 2618.652,-505.5 2618.652,-246.3 2071.9666,-246.3"/>
<text text-anchor="middle" x="2345.3093" y="-488.9" font-family="Times,serif" font-size="14.00" fill="#000000">&lt;&lt;Interface&gt;&gt;</text>
<text text-anchor="middle" x="2345.3093" y="-472.1" font-family="Times,serif" font-size="14.00" fill="#000000">IGovernanceState</text>
<polyline fill="none" stroke="#000000" points="2071.9666,-463.9 2618.652,-463.9 "/>
<text text-anchor="middle" x="2345.3093" y="-447.3" font-family="Times,serif" font-size="14.00" fill="#000000"> </text>
<polyline fill="none" stroke="#000000" points="2071.9666,-439.1 2618.652,-439.1 "/>
<text text-anchor="start" x="2079.9666" y="-422.5" font-family="Times,serif" font-size="14.00" fill="#000000">External:</text>
<text text-anchor="start" x="2079.9666" y="-405.7" font-family="Times,serif" font-size="14.00" fill="#000000"> &#160;&#160;&#160;&#160;getActions(proposalId: uint256): (proposedActions: IGovernanceVoting.ProposedAction[])</text>
<text text-anchor="start" x="2079.9666" y="-388.9" font-family="Times,serif" font-size="14.00" fill="#000000"> &#160;&#160;&#160;&#160;getProposalById(proposalId: uint256): (proposalWrapper: ProposalWrapper)</text>
<text text-anchor="start" x="2079.9666" y="-372.1" font-family="Times,serif" font-size="14.00" fill="#000000"> &#160;&#160;&#160;&#160;getProposalState(proposalId: uint256): ProposalState</text>
<text text-anchor="start" x="2079.9666" y="-355.3" font-family="Times,serif" font-size="14.00" fill="#000000"> &#160;&#160;&#160;&#160;getReceipt(proposalId: uint256, voter: address): Receipt</text>
<text text-anchor="start" x="2079.9666" y="-338.5" font-family="Times,serif" font-size="14.00" fill="#000000"> &#160;&#160;&#160;&#160;getVotingPower(account: address): (votingPower: uint256)</text>
<text text-anchor="start" x="2079.9666" y="-321.7" font-family="Times,serif" font-size="14.00" fill="#000000"> &#160;&#160;&#160;&#160;governanceParameters(): EnhancedParams</text>
<text text-anchor="start" x="2079.9666" y="-304.9" font-family="Times,serif" font-size="14.00" fill="#000000"> &#160;&#160;&#160;&#160;name(): string</text>
<text text-anchor="start" x="2079.9666" y="-288.1" font-family="Times,serif" font-size="14.00" fill="#000000"> &#160;&#160;&#160;&#160;proposalCount(): (count: uint256)</text>
<text text-anchor="start" x="2079.9666" y="-271.3" font-family="Times,serif" font-size="14.00" fill="#000000"> &#160;&#160;&#160;&#160;proposals(): (proposalWrapper: ProposalWrapper[])</text>
<text text-anchor="start" x="2079.9666" y="-254.5" font-family="Times,serif" font-size="14.00" fill="#000000"> &#160;&#160;&#160;&#160;votingPeriod(): uint256</text>
</g>
<!-- 3struct0 -->
<g id="node5" class="node">
<title>3struct0</title>
<polygon fill="#f2f2f2" stroke="#000000" points="1463.2942,-21.3 1463.2942,-188.5 1631.3244,-188.5 1631.3244,-21.3 1463.2942,-21.3"/>
<text text-anchor="middle" x="1547.3093" y="-171.9" font-family="Times,serif" font-size="14.00" fill="#000000">&lt;&lt;struct&gt;&gt;</text>
<text text-anchor="middle" x="1547.3093" y="-155.1" font-family="Times,serif" font-size="14.00" fill="#000000">Proposal</text>
<polyline fill="none" stroke="#000000" points="1463.2942,-146.9 1631.3244,-146.9 "/>
<text text-anchor="start" x="1471.2942" y="-130.3" font-family="Times,serif" font-size="14.00" fill="#000000">actionsLength: uint256</text>
<text text-anchor="start" x="1471.2942" y="-113.5" font-family="Times,serif" font-size="14.00" fill="#000000">startBlockOrTime: uint256</text>
<text text-anchor="start" x="1471.2942" y="-96.7" font-family="Times,serif" font-size="14.00" fill="#000000">endBlockOrTime: uint256</text>
<text text-anchor="start" x="1471.2942" y="-79.9" font-family="Times,serif" font-size="14.00" fill="#000000">votesFor: uint256</text>
<text text-anchor="start" x="1471.2942" y="-63.1" font-family="Times,serif" font-size="14.00" fill="#000000">votesAgainst: uint256</text>
<text text-anchor="start" x="1471.2942" y="-46.3" font-family="Times,serif" font-size="14.00" fill="#000000">votesAbstain: uint256</text>
<text text-anchor="start" x="1471.2942" y="-29.5" font-family="Times,serif" font-size="14.00" fill="#000000">executed: bool</text>
</g>
<!-- 3struct0&#45;&gt;3 -->
<g id="edge1" class="edge">
<title>3struct0&#45;&gt;3</title>
<path fill="none" stroke="#000000" d="M1612.1411,-188.5088C1620.9404,-196.5322 1630.3842,-203.8719 1640.3093,-209.8 1766.7164,-285.301 1924.9776,-326.4842 2059.5089,-348.9477"/>
<polygon fill="#000000" stroke="#000000" points="2059.781,-348.9922 2066.3485,-346.0141 2071.6234,-350.9309 2065.056,-353.909 2059.781,-348.9922"/>
</g>
<!-- 3struct1 -->
<g id="node6" class="node">
<title>3struct1</title>
<polygon fill="#f2f2f2" stroke="#000000" points="1649.8029,-63.3 1649.8029,-146.5 1976.8157,-146.5 1976.8157,-63.3 1649.8029,-63.3"/>
<text text-anchor="middle" x="1813.3093" y="-129.9" font-family="Times,serif" font-size="14.00" fill="#000000">&lt;&lt;struct&gt;&gt;</text>
<text text-anchor="middle" x="1813.3093" y="-113.1" font-family="Times,serif" font-size="14.00" fill="#000000">ProposalWrapper</text>
<polyline fill="none" stroke="#000000" points="1649.8029,-104.9 1976.8157,-104.9 "/>
<text text-anchor="start" x="1657.8029" y="-88.3" font-family="Times,serif" font-size="14.00" fill="#000000">proposal: Proposal</text>
<text text-anchor="start" x="1657.8029" y="-71.5" font-family="Times,serif" font-size="14.00" fill="#000000">proposedAction: IGovernanceVoting.ProposedAction[]</text>
</g>
<!-- 3struct1&#45;&gt;3 -->
<g id="edge2" class="edge">
<title>3struct1&#45;&gt;3</title>
<path fill="none" stroke="#000000" d="M1878.0313,-146.5043C1910.1092,-166.5135 1949.7236,-190.3226 1986.3093,-209.8 2010.3106,-222.5777 2035.4752,-235.3762 2060.8691,-247.8834"/>
<polygon fill="#000000" stroke="#000000" points="2060.9889,-247.942 2068.1371,-246.9919 2071.7635,-253.2248 2064.6153,-254.175 2060.9889,-247.942"/>
</g>
<!-- 3struct2 -->
<g id="node7" class="node">
<title>3struct2</title>
<polygon fill="#f2f2f2" stroke="#000000" points="1994.8513,-54.9 1994.8513,-154.9 2241.7673,-154.9 2241.7673,-54.9 1994.8513,-54.9"/>
<text text-anchor="middle" x="2118.3093" y="-138.3" font-family="Times,serif" font-size="14.00" fill="#000000">&lt;&lt;struct&gt;&gt;</text>
<text text-anchor="middle" x="2118.3093" y="-121.5" font-family="Times,serif" font-size="14.00" fill="#000000">Receipt</text>
<polyline fill="none" stroke="#000000" points="1994.8513,-113.3 2241.7673,-113.3 "/>
<text text-anchor="start" x="2002.8513" y="-96.7" font-family="Times,serif" font-size="14.00" fill="#000000">hasVoted: bool</text>
<text text-anchor="start" x="2002.8513" y="-79.9" font-family="Times,serif" font-size="14.00" fill="#000000">votes: uint96</text>
<text text-anchor="start" x="2002.8513" y="-63.1" font-family="Times,serif" font-size="14.00" fill="#000000">voteType: IGovernanceVoting.VoteType</text>
</g>
<!-- 3struct2&#45;&gt;3 -->
<g id="edge3" class="edge">
<title>3struct2&#45;&gt;3</title>
<path fill="none" stroke="#000000" d="M2160.2091,-154.9214C2179.7448,-178.2437 2204.0638,-207.2765 2228.5836,-236.549"/>
<polygon fill="#000000" stroke="#000000" points="2228.8402,-236.8555 2235.7594,-238.8865 2236.5458,-246.0546 2229.6266,-244.0236 2228.8402,-236.8555"/>
</g>
<!-- 3struct3 -->
<g id="node8" class="node">
<title>3struct3</title>
<polygon fill="#f2f2f2" stroke="#000000" points="2259.7367,-46.5 2259.7367,-163.3 2430.8819,-163.3 2430.8819,-46.5 2259.7367,-46.5"/>
<text text-anchor="middle" x="2345.3093" y="-146.7" font-family="Times,serif" font-size="14.00" fill="#000000">&lt;&lt;struct&gt;&gt;</text>
<text text-anchor="middle" x="2345.3093" y="-129.9" font-family="Times,serif" font-size="14.00" fill="#000000">GovernanceParameters</text>
<polyline fill="none" stroke="#000000" points="2259.7367,-121.7 2430.8819,-121.7 "/>
<text text-anchor="start" x="2267.7367" y="-105.1" font-family="Times,serif" font-size="14.00" fill="#000000">strategy: address</text>
<text text-anchor="start" x="2267.7367" y="-88.3" font-family="Times,serif" font-size="14.00" fill="#000000">proposalThreshold: uint256</text>
<text text-anchor="start" x="2267.7367" y="-71.5" font-family="Times,serif" font-size="14.00" fill="#000000">quorumThreshold: uint256</text>
<text text-anchor="start" x="2267.7367" y="-54.7" font-family="Times,serif" font-size="14.00" fill="#000000">timeType: TimeType</text>
</g>
<!-- 3struct3&#45;&gt;3 -->
<g id="edge4" class="edge">
<title>3struct3&#45;&gt;3</title>
<path fill="none" stroke="#000000" d="M2345.3093,-163.3693C2345.3093,-184.363 2345.3093,-209.0508 2345.3093,-234.028"/>
<polygon fill="#000000" stroke="#000000" points="2345.3094,-234.2979 2349.3093,-240.2979 2345.3093,-246.2979 2341.3093,-240.2979 2345.3094,-234.2979"/>
</g>
<!-- 3struct4 -->
<g id="node9" class="node">
<title>3struct4</title>
<polygon fill="#f2f2f2" stroke="#000000" points="2448.4947,-54.9 2448.4947,-154.9 2642.1239,-154.9 2642.1239,-54.9 2448.4947,-54.9"/>
<text text-anchor="middle" x="2545.3093" y="-138.3" font-family="Times,serif" font-size="14.00" fill="#000000">&lt;&lt;struct&gt;&gt;</text>
<text text-anchor="middle" x="2545.3093" y="-121.5" font-family="Times,serif" font-size="14.00" fill="#000000">EnhancedParams</text>
<polyline fill="none" stroke="#000000" points="2448.4947,-113.3 2642.1239,-113.3 "/>
<text text-anchor="start" x="2456.4947" y="-96.7" font-family="Times,serif" font-size="14.00" fill="#000000">params: GovernanceParameters</text>
<text text-anchor="start" x="2456.4947" y="-79.9" font-family="Times,serif" font-size="14.00" fill="#000000">name: string</text>
<text text-anchor="start" x="2456.4947" y="-63.1" font-family="Times,serif" font-size="14.00" fill="#000000">version: string</text>
</g>
<!-- 3struct4&#45;&gt;3 -->
<g id="edge5" class="edge">
<title>3struct4&#45;&gt;3</title>
<path fill="none" stroke="#000000" d="M2508.3931,-154.9214C2491.2556,-178.1428 2469.9401,-207.0252 2448.4319,-236.1689"/>
<polygon fill="#000000" stroke="#000000" points="2448.2619,-236.3993 2447.9174,-243.6022 2441.1361,-246.0546 2441.4806,-238.8517 2448.2619,-236.3993"/>
</g>
<!-- 3enum0 -->
<g id="node10" class="node">
<title>3enum0</title>
<polygon fill="#f2f2f2" stroke="#000000" points="2659.8163,-4.5 2659.8163,-205.3 2752.8023,-205.3 2752.8023,-4.5 2659.8163,-4.5"/>
<text text-anchor="middle" x="2706.3093" y="-188.7" font-family="Times,serif" font-size="14.00" fill="#000000">&lt;&lt;enum&gt;&gt;</text>
<text text-anchor="middle" x="2706.3093" y="-171.9" font-family="Times,serif" font-size="14.00" fill="#000000">ProposalState</text>
<polyline fill="none" stroke="#000000" points="2659.8163,-163.7 2752.8023,-163.7 "/>
<text text-anchor="start" x="2667.8163" y="-147.1" font-family="Times,serif" font-size="14.00" fill="#000000">Pending</text>
<text text-anchor="start" x="2667.8163" y="-130.3" font-family="Times,serif" font-size="14.00" fill="#000000">Active</text>
<text text-anchor="start" x="2667.8163" y="-113.5" font-family="Times,serif" font-size="14.00" fill="#000000">Canceled</text>
<text text-anchor="start" x="2667.8163" y="-96.7" font-family="Times,serif" font-size="14.00" fill="#000000">Qualified</text>
<text text-anchor="start" x="2667.8163" y="-79.9" font-family="Times,serif" font-size="14.00" fill="#000000">Defeated</text>
<text text-anchor="start" x="2667.8163" y="-63.1" font-family="Times,serif" font-size="14.00" fill="#000000">Succeeded</text>
<text text-anchor="start" x="2667.8163" y="-46.3" font-family="Times,serif" font-size="14.00" fill="#000000">Queued</text>
<text text-anchor="start" x="2667.8163" y="-29.5" font-family="Times,serif" font-size="14.00" fill="#000000">Expired</text>
<text text-anchor="start" x="2667.8163" y="-12.7" font-family="Times,serif" font-size="14.00" fill="#000000">Executed</text>
</g>
<!-- 3enum0&#45;&gt;3 -->
<g id="edge6" class="edge">
<title>3enum0&#45;&gt;3</title>
<path fill="none" stroke="#000000" d="M2659.6247,-200.5117C2656.968,-203.7595 2654.1964,-206.8711 2651.3093,-209.8 2641.4468,-219.8055 2630.8529,-229.3634 2619.7416,-238.4724"/>
<polygon fill="#000000" stroke="#000000" points="2619.6685,-238.5307 2617.4757,-245.4004 2610.2911,-246.0184 2612.4839,-239.1488 2619.6685,-238.5307"/>
</g>
<!-- 3enum1 -->
<g id="node11" class="node">
<title>3enum1</title>
<polygon fill="#f2f2f2" stroke="#000000" points="2771.2055,-63.3 2771.2055,-146.5 2863.4131,-146.5 2863.4131,-63.3 2771.2055,-63.3"/>
<text text-anchor="middle" x="2817.3093" y="-129.9" font-family="Times,serif" font-size="14.00" fill="#000000">&lt;&lt;enum&gt;&gt;</text>
<text text-anchor="middle" x="2817.3093" y="-113.1" font-family="Times,serif" font-size="14.00" fill="#000000">TimeType</text>
<polyline fill="none" stroke="#000000" points="2771.2055,-104.9 2863.4131,-104.9 "/>
<text text-anchor="start" x="2779.2055" y="-88.3" font-family="Times,serif" font-size="14.00" fill="#000000">Blocknumber</text>
<text text-anchor="start" x="2779.2055" y="-71.5" font-family="Times,serif" font-size="14.00" fill="#000000">Timestamp</text>
</g>
<!-- 3enum1&#45;&gt;3 -->
<g id="edge7" class="edge">
<title>3enum1&#45;&gt;3</title>
<path fill="none" stroke="#000000" d="M2802.9891,-146.7074C2793.8951,-167.9856 2780.2285,-192.8633 2761.3093,-209.8 2723.2112,-243.9059 2677.2401,-271.4495 2629.9535,-293.5518"/>
<polygon fill="#000000" stroke="#000000" points="2629.7942,-293.6246 2626.0029,-299.7587 2618.8826,-298.6182 2622.6739,-292.4842 2629.7942,-293.6246"/>
</g>
<!-- 4 -->
<g id="node12" class="node">
<title>4</title>
<polygon fill="#f2f2f2" stroke="#000000" points="2881.5536,-34.1 2881.5536,-175.7 3387.065,-175.7 3387.065,-34.1 2881.5536,-34.1"/>
<text text-anchor="middle" x="3134.3093" y="-159.1" font-family="Times,serif" font-size="14.00" fill="#000000">&lt;&lt;Interface&gt;&gt;</text>
<text text-anchor="middle" x="3134.3093" y="-142.3" font-family="Times,serif" font-size="14.00" fill="#000000">IGovernanceUpgrade</text>
<polyline fill="none" stroke="#000000" points="2881.5536,-134.1 3387.065,-134.1 "/>
<text text-anchor="middle" x="3134.3093" y="-117.5" font-family="Times,serif" font-size="14.00" fill="#000000"> </text>
<polyline fill="none" stroke="#000000" points="2881.5536,-109.3 3387.065,-109.3 "/>
<text text-anchor="start" x="2889.5536" y="-92.7" font-family="Times,serif" font-size="14.00" fill="#000000">External:</text>
<text text-anchor="start" x="2889.5536" y="-75.9" font-family="Times,serif" font-size="14.00" fill="#000000"> &#160;&#160;&#160;&#160;updateThresholds(newProposalThreshold: uint256, newQuorumThreshold: uint256)</text>
<text text-anchor="start" x="2889.5536" y="-59.1" font-family="Times,serif" font-size="14.00" fill="#000000"> &#160;&#160;&#160;&#160;upgradeImplementation(newImplementation: address)</text>
<text text-anchor="start" x="2889.5536" y="-42.3" font-family="Times,serif" font-size="14.00" fill="#000000"> &#160;&#160;&#160;&#160;upgradeStrategy(newStrategy: address)</text>
</g>
<!-- 5 -->
<g id="node13" class="node">
<title>5</title>
<polygon fill="#f2f2f2" stroke="#000000" points="3227.6942,-296.7 3227.6942,-455.1 3798.9244,-455.1 3798.9244,-296.7 3227.6942,-296.7"/>
<text text-anchor="middle" x="3513.3093" y="-438.5" font-family="Times,serif" font-size="14.00" fill="#000000">&lt;&lt;Interface&gt;&gt;</text>
<text text-anchor="middle" x="3513.3093" y="-421.7" font-family="Times,serif" font-size="14.00" fill="#000000">IGovernanceVoting</text>
<polyline fill="none" stroke="#000000" points="3227.6942,-413.5 3798.9244,-413.5 "/>
<text text-anchor="middle" x="3513.3093" y="-396.9" font-family="Times,serif" font-size="14.00" fill="#000000"> </text>
<polyline fill="none" stroke="#000000" points="3227.6942,-388.7 3798.9244,-388.7 "/>
<text text-anchor="start" x="3235.6942" y="-372.1" font-family="Times,serif" font-size="14.00" fill="#000000">External:</text>
<text text-anchor="start" x="3235.6942" y="-355.3" font-family="Times,serif" font-size="14.00" fill="#000000"> &#160;&#160;&#160;&#160;castVote(proposalId: uint256, voteType: VoteType)</text>
<text text-anchor="start" x="3235.6942" y="-338.5" font-family="Times,serif" font-size="14.00" fill="#000000"> &#160;&#160;&#160;&#160;castVoteBySignature(proposalId: uint256, voteType: VoteType, v: uint8, r: bytes32, s: bytes32)</text>
<text text-anchor="start" x="3235.6942" y="-321.7" font-family="Times,serif" font-size="14.00" fill="#000000"> &#160;&#160;&#160;&#160;execute(proposalId: uint256)</text>
<text text-anchor="start" x="3235.6942" y="-304.9" font-family="Times,serif" font-size="14.00" fill="#000000"> &#160;&#160;&#160;&#160;propose(actions: ProposedAction[], description: string): (proposalId: uint256)</text>
</g>
<!-- 5struct0 -->
<g id="node14" class="node">
<title>5struct0</title>
<polygon fill="#f2f2f2" stroke="#000000" points="3405.2069,-54.9 3405.2069,-154.9 3511.4117,-154.9 3511.4117,-54.9 3405.2069,-54.9"/>
<text text-anchor="middle" x="3458.3093" y="-138.3" font-family="Times,serif" font-size="14.00" fill="#000000">&lt;&lt;struct&gt;&gt;</text>
<text text-anchor="middle" x="3458.3093" y="-121.5" font-family="Times,serif" font-size="14.00" fill="#000000">ProposedAction</text>
<polyline fill="none" stroke="#000000" points="3405.2069,-113.3 3511.4117,-113.3 "/>
<text text-anchor="start" x="3413.2069" y="-96.7" font-family="Times,serif" font-size="14.00" fill="#000000">target: address</text>
<text text-anchor="start" x="3413.2069" y="-79.9" font-family="Times,serif" font-size="14.00" fill="#000000">data: bytes</text>
<text text-anchor="start" x="3413.2069" y="-63.1" font-family="Times,serif" font-size="14.00" fill="#000000">value: uint256</text>
</g>
<!-- 5struct0&#45;&gt;5 -->
<g id="edge8" class="edge">
<title>5struct0&#45;&gt;5</title>
<path fill="none" stroke="#000000" d="M3468.4612,-154.9214C3475.8237,-191.198 3485.99,-241.2904 3494.7821,-284.6114"/>
<polygon fill="#000000" stroke="#000000" points="3494.8352,-284.8733 3499.9487,-289.9578 3497.222,-296.6335 3492.1085,-291.549 3494.8352,-284.8733"/>
</g>
<!-- 5enum0 -->
<g id="node15" class="node">
<title>5enum0</title>
<polygon fill="#f2f2f2" stroke="#000000" points="3528.9675,-54.9 3528.9675,-154.9 3607.6511,-154.9 3607.6511,-54.9 3528.9675,-54.9"/>
<text text-anchor="middle" x="3568.3093" y="-138.3" font-family="Times,serif" font-size="14.00" fill="#000000">&lt;&lt;enum&gt;&gt;</text>
<text text-anchor="middle" x="3568.3093" y="-121.5" font-family="Times,serif" font-size="14.00" fill="#000000">VoteType</text>
<polyline fill="none" stroke="#000000" points="3528.9675,-113.3 3607.6511,-113.3 "/>
<text text-anchor="start" x="3536.9675" y="-96.7" font-family="Times,serif" font-size="14.00" fill="#000000">For</text>
<text text-anchor="start" x="3536.9675" y="-79.9" font-family="Times,serif" font-size="14.00" fill="#000000">Against</text>
<text text-anchor="start" x="3536.9675" y="-63.1" font-family="Times,serif" font-size="14.00" fill="#000000">Abstain</text>
</g>
<!-- 5enum0&#45;&gt;5 -->
<g id="edge9" class="edge">
<title>5enum0&#45;&gt;5</title>
<path fill="none" stroke="#000000" d="M3558.1574,-154.9214C3550.7949,-191.198 3540.6286,-241.2904 3531.8365,-284.6114"/>
<polygon fill="#000000" stroke="#000000" points="3531.7834,-284.8733 3534.5101,-291.549 3529.3966,-296.6335 3526.6699,-289.9578 3531.7834,-284.8733"/>
</g>
<!-- 6 -->
<g id="node16" class="node">
<title>6</title>
<polygon fill="#f2f2f2" stroke="#000000" points="3625.9021,-.5 3625.9021,-209.3 4098.7165,-209.3 4098.7165,-.5 3625.9021,-.5"/>
<text text-anchor="middle" x="3862.3093" y="-192.7" font-family="Times,serif" font-size="14.00" fill="#000000">AGovernance</text>
<polyline fill="none" stroke="#000000" points="3625.9021,-184.5 4098.7165,-184.5 "/>
<text text-anchor="start" x="3633.9021" y="-167.9" font-family="Times,serif" font-size="14.00" fill="#000000">Private:</text>
<text text-anchor="start" x="3633.9021" y="-151.1" font-family="Times,serif" font-size="14.00" fill="#000000"> &#160;&#160;_governance: address</text>
<polyline fill="none" stroke="#000000" points="3625.9021,-142.9 4098.7165,-142.9 "/>
<text text-anchor="start" x="3633.9021" y="-126.3" font-family="Times,serif" font-size="14.00" fill="#000000">Private:</text>
<text text-anchor="start" x="3633.9021" y="-109.5" font-family="Times,serif" font-size="14.00" fill="#000000"> &#160;&#160;&#160;_getGovernance(): address</text>
<text text-anchor="start" x="3633.9021" y="-92.7" font-family="Times,serif" font-size="14.00" fill="#000000">External:</text>
<text text-anchor="start" x="3633.9021" y="-75.9" font-family="Times,serif" font-size="14.00" fill="#000000"> &#160;&#160;&#160;propose(actions: IRigoblockGovernance.ProposedAction[], description: string)</text>
<text text-anchor="start" x="3633.9021" y="-59.1" font-family="Times,serif" font-size="14.00" fill="#000000"> &#160;&#160;&#160;castVote(proposalId: uint256, voteType: IRigoblockGovernance.VoteType)</text>
<text text-anchor="start" x="3633.9021" y="-42.3" font-family="Times,serif" font-size="14.00" fill="#000000"> &#160;&#160;&#160;execute(proposalId: uint256)</text>
<text text-anchor="start" x="3633.9021" y="-25.5" font-family="Times,serif" font-size="14.00" fill="#000000">Public:</text>
<text text-anchor="start" x="3633.9021" y="-8.7" font-family="Times,serif" font-size="14.00" fill="#000000"> &#160;&#160;&#160;constructor(governance: address)</text>
</g>
<!-- 7 -->
<g id="node17" class="node">
<title>7</title>
<polygon fill="#f2f2f2" stroke="#000000" points="4117.1521,-34.1 4117.1521,-175.7 4593.4665,-175.7 4593.4665,-34.1 4117.1521,-34.1"/>
<text text-anchor="middle" x="4355.3093" y="-159.1" font-family="Times,serif" font-size="14.00" fill="#000000">&lt;&lt;Interface&gt;&gt;</text>
<text text-anchor="middle" x="4355.3093" y="-142.3" font-family="Times,serif" font-size="14.00" fill="#000000">IAGovernance</text>
<polyline fill="none" stroke="#000000" points="4117.1521,-134.1 4593.4665,-134.1 "/>
<text text-anchor="middle" x="4355.3093" y="-117.5" font-family="Times,serif" font-size="14.00" fill="#000000"> </text>
<polyline fill="none" stroke="#000000" points="4117.1521,-109.3 4593.4665,-109.3 "/>
<text text-anchor="start" x="4125.1521" y="-92.7" font-family="Times,serif" font-size="14.00" fill="#000000">External:</text>
<text text-anchor="start" x="4125.1521" y="-75.9" font-family="Times,serif" font-size="14.00" fill="#000000"> &#160;&#160;&#160;&#160;propose(actions: IRigoblockGovernance.ProposedAction[], description: string)</text>
<text text-anchor="start" x="4125.1521" y="-59.1" font-family="Times,serif" font-size="14.00" fill="#000000"> &#160;&#160;&#160;&#160;castVote(proposalId: uint256, voteType: IRigoblockGovernance.VoteType)</text>
<text text-anchor="start" x="4125.1521" y="-42.3" font-family="Times,serif" font-size="14.00" fill="#000000"> &#160;&#160;&#160;&#160;execute(proposalId: uint256)</text>
</g>
</g>
</svg>
