<?xml version="1.0" encoding="UTF-8" standalone="no"?>
<!DOCTYPE svg PUBLIC "-//W3C//DTD SVG 1.1//EN"
 "http://www.w3.org/Graphics/SVG/1.1/DTD/svg11.dtd">
<!-- Generated by graphviz version 2.40.1 (20161225.0304)
 -->
<!-- Title: UmlClassDiagram Pages: 1 -->
<svg width="5729pt" height="506pt"
 viewBox="0.00 0.00 5728.60 506.00" xmlns="http://www.w3.org/2000/svg" xmlns:xlink="http://www.w3.org/1999/xlink">
<g id="graph0" class="graph" transform="scale(1 1) rotate(0) translate(4 502)">
<title>UmlClassDiagram</title>
<polygon fill="#ffffff" stroke="transparent" points="-4,4 -4,-502 5724.6038,-502 5724.6038,4 -4,4"/>
<!-- 0 -->
<g id="node1" class="node">
<title>0</title>
<polygon fill="#f2f2f2" stroke="#000000" points="318.6672,-55.3 318.6672,-146.5 465.2858,-146.5 465.2858,-55.3 318.6672,-55.3"/>
<text text-anchor="middle" x="391.9765" y="-129.9" font-family="Times,serif" font-size="14.00" fill="#000000">&lt;&lt;Interface&gt;&gt;</text>
<text text-anchor="middle" x="391.9765" y="-113.1" font-family="Times,serif" font-size="14.00" fill="#000000">IRigoblockGovernance</text>
<polyline fill="none" stroke="#000000" points="318.6672,-104.9 465.2858,-104.9 "/>
<text text-anchor="middle" x="391.9765" y="-88.3" font-family="Times,serif" font-size="14.00" fill="#000000"> </text>
<polyline fill="none" stroke="#000000" points="318.6672,-80.1 465.2858,-80.1 "/>
<text text-anchor="middle" x="391.9765" y="-63.5" font-family="Times,serif" font-size="14.00" fill="#000000"> </text>
</g>
<!-- 1 -->
<g id="node2" class="node">
<title>1</title>
<polygon fill="#f2f2f2" stroke="#000000" points="0,-288.7 0,-447.1 1235.953,-447.1 1235.953,-288.7 0,-288.7"/>
<text text-anchor="middle" x="617.9765" y="-430.5" font-family="Times,serif" font-size="14.00" fill="#000000">&lt;&lt;Interface&gt;&gt;</text>
<text text-anchor="middle" x="617.9765" y="-413.7" font-family="Times,serif" font-size="14.00" fill="#000000">IRigoblockGovernanceFactory</text>
<polyline fill="none" stroke="#000000" points="0,-405.5 1235.953,-405.5 "/>
<text text-anchor="middle" x="617.9765" y="-388.9" font-family="Times,serif" font-size="14.00" fill="#000000"> </text>
<polyline fill="none" stroke="#000000" points="0,-380.7 1235.953,-380.7 "/>
<text text-anchor="start" x="8" y="-364.1" font-family="Times,serif" font-size="14.00" fill="#000000">External:</text>
<text text-anchor="start" x="8" y="-347.3" font-family="Times,serif" font-size="14.00" fill="#000000"> &#160;&#160;&#160;&#160;createGovernance(implementation: address, governanceStrategy: address, proposalThreshold: uint256, quorumThreshold: uint256, timeType: IRigoblockGovernance.TimeType, name: string): (governance: address)</text>
<text text-anchor="start" x="8" y="-330.5" font-family="Times,serif" font-size="14.00" fill="#000000"> &#160;&#160;&#160;&#160;parameters(): Parameters</text>
<text text-anchor="start" x="8" y="-313.7" font-family="Times,serif" font-size="14.00" fill="#000000">Public:</text>
<text text-anchor="start" x="8" y="-296.9" font-family="Times,serif" font-size="14.00" fill="#000000"> &#160;&#160;&#160;&lt;&lt;event&gt;&gt; GovernanceCreated(governance: address)</text>
</g>
<!-- 1struct0 -->
<g id="node3" class="node">
<title>1struct0</title>
<polygon fill="#f2f2f2" stroke="#000000" points="483.2373,-25.7 483.2373,-176.1 752.7157,-176.1 752.7157,-25.7 483.2373,-25.7"/>
<text text-anchor="middle" x="617.9765" y="-159.5" font-family="Times,serif" font-size="14.00" fill="#000000">&lt;&lt;struct&gt;&gt;</text>
<text text-anchor="middle" x="617.9765" y="-142.7" font-family="Times,serif" font-size="14.00" fill="#000000">Parameters</text>
<polyline fill="none" stroke="#000000" points="483.2373,-134.5 752.7157,-134.5 "/>
<text text-anchor="start" x="491.2373" y="-117.9" font-family="Times,serif" font-size="14.00" fill="#000000">implementation: address</text>
<text text-anchor="start" x="491.2373" y="-101.1" font-family="Times,serif" font-size="14.00" fill="#000000">governanceStrategy: address</text>
<text text-anchor="start" x="491.2373" y="-84.3" font-family="Times,serif" font-size="14.00" fill="#000000">proposalThreshold: uint256</text>
<text text-anchor="start" x="491.2373" y="-67.5" font-family="Times,serif" font-size="14.00" fill="#000000">quorumThreshold: uint256</text>
<text text-anchor="start" x="491.2373" y="-50.7" font-family="Times,serif" font-size="14.00" fill="#000000">timeType: IRigoblockGovernance.TimeType</text>
<text text-anchor="start" x="491.2373" y="-33.9" font-family="Times,serif" font-size="14.00" fill="#000000">name: string</text>
</g>
<!-- 1struct0&#45;&gt;1 -->
<g id="edge1" class="edge">
<title>1struct0&#45;&gt;1</title>
<path fill="none" stroke="#000000" d="M617.9765,-176.3409C617.9765,-207.3808 617.9765,-243.6214 617.9765,-276.1762"/>
<polygon fill="#000000" stroke="#000000" points="617.9766,-276.4542 621.9765,-282.4542 617.9765,-288.4542 613.9765,-282.4541 617.9766,-276.4542"/>
</g>
<!-- 2 -->
<g id="node4" class="node">
<title>2</title>
<polygon fill="#f2f2f2" stroke="#000000" points="771.2067,-4.9 771.2067,-196.9 1874.7463,-196.9 1874.7463,-4.9 771.2067,-4.9"/>
<text text-anchor="middle" x="1322.9765" y="-180.3" font-family="Times,serif" font-size="14.00" fill="#000000">&lt;&lt;Interface&gt;&gt;</text>
<text text-anchor="middle" x="1322.9765" y="-163.5" font-family="Times,serif" font-size="14.00" fill="#000000">IGovernanceEvents</text>
<polyline fill="none" stroke="#000000" points="771.2067,-155.3 1874.7463,-155.3 "/>
<text text-anchor="middle" x="1322.9765" y="-138.7" font-family="Times,serif" font-size="14.00" fill="#000000"> </text>
<polyline fill="none" stroke="#000000" points="771.2067,-130.5 1874.7463,-130.5 "/>
<text text-anchor="start" x="779.2067" y="-113.9" font-family="Times,serif" font-size="14.00" fill="#000000">Public:</text>
<text text-anchor="start" x="779.2067" y="-97.1" font-family="Times,serif" font-size="14.00" fill="#000000"> &#160;&#160;&#160;&lt;&lt;event&gt;&gt; ProposalCreated(proposer: address, proposalId: uint256, actions: IGovernanceVoting.ProposedAction[], startBlockOrTime: uint256, endBlockOrTime: uint256, description: string)</text>
<text text-anchor="start" x="779.2067" y="-80.3" font-family="Times,serif" font-size="14.00" fill="#000000"> &#160;&#160;&#160;&lt;&lt;event&gt;&gt; ProposalExecuted(proposalId: uint256)</text>
<text text-anchor="start" x="779.2067" y="-63.5" font-family="Times,serif" font-size="14.00" fill="#000000"> &#160;&#160;&#160;&lt;&lt;event&gt;&gt; StrategyUpgraded(newStrategy: address)</text>
<text text-anchor="start" x="779.2067" y="-46.7" font-family="Times,serif" font-size="14.00" fill="#000000"> &#160;&#160;&#160;&lt;&lt;event&gt;&gt; ThresholdsUpdated(proposalThreshold: uint256, quorumThreshold: uint256)</text>
<text text-anchor="start" x="779.2067" y="-29.9" font-family="Times,serif" font-size="14.00" fill="#000000"> &#160;&#160;&#160;&lt;&lt;event&gt;&gt; Upgraded(newImplementation: address)</text>
<text text-anchor="start" x="779.2067" y="-13.1" font-family="Times,serif" font-size="14.00" fill="#000000"> &#160;&#160;&#160;&lt;&lt;event&gt;&gt; VoteCast(voter: address, proposalId: uint256, voteType: IGovernanceVoting.VoteType, votingPower: uint256)</text>
</g>
<!-- 3 -->
<g id="node5" class="node">
<title>3</title>
<polygon fill="#f2f2f2" stroke="#000000" points="1892.2594,-46.9 1892.2594,-154.9 2051.6936,-154.9 2051.6936,-46.9 1892.2594,-46.9"/>
<text text-anchor="middle" x="1971.9765" y="-138.3" font-family="Times,serif" font-size="14.00" fill="#000000">&lt;&lt;Interface&gt;&gt;</text>
<text text-anchor="middle" x="1971.9765" y="-121.5" font-family="Times,serif" font-size="14.00" fill="#000000">IGovernanceInitializer</text>
<polyline fill="none" stroke="#000000" points="1892.2594,-113.3 2051.6936,-113.3 "/>
<text text-anchor="middle" x="1971.9765" y="-96.7" font-family="Times,serif" font-size="14.00" fill="#000000"> </text>
<polyline fill="none" stroke="#000000" points="1892.2594,-88.5 2051.6936,-88.5 "/>
<text text-anchor="start" x="1900.2594" y="-71.9" font-family="Times,serif" font-size="14.00" fill="#000000">External:</text>
<text text-anchor="start" x="1900.2594" y="-55.1" font-family="Times,serif" font-size="14.00" fill="#000000"> &#160;&#160;&#160;&#160;initializeGovernance()</text>
</g>
<!-- 4 -->
<g id="node6" class="node">
<title>4</title>
<polygon fill="#f2f2f2" stroke="#000000" points="2678.6338,-238.3 2678.6338,-497.5 3225.3192,-497.5 3225.3192,-238.3 2678.6338,-238.3"/>
<text text-anchor="middle" x="2951.9765" y="-480.9" font-family="Times,serif" font-size="14.00" fill="#000000">&lt;&lt;Interface&gt;&gt;</text>
<text text-anchor="middle" x="2951.9765" y="-464.1" font-family="Times,serif" font-size="14.00" fill="#000000">IGovernanceState</text>
<polyline fill="none" stroke="#000000" points="2678.6338,-455.9 3225.3192,-455.9 "/>
<text text-anchor="middle" x="2951.9765" y="-439.3" font-family="Times,serif" font-size="14.00" fill="#000000"> </text>
<polyline fill="none" stroke="#000000" points="2678.6338,-431.1 3225.3192,-431.1 "/>
<text text-anchor="start" x="2686.6338" y="-414.5" font-family="Times,serif" font-size="14.00" fill="#000000">External:</text>
<text text-anchor="start" x="2686.6338" y="-397.7" font-family="Times,serif" font-size="14.00" fill="#000000"> &#160;&#160;&#160;&#160;getActions(proposalId: uint256): (proposedActions: IGovernanceVoting.ProposedAction[])</text>
<text text-anchor="start" x="2686.6338" y="-380.9" font-family="Times,serif" font-size="14.00" fill="#000000"> &#160;&#160;&#160;&#160;getProposalById(proposalId: uint256): (proposalWrapper: ProposalWrapper)</text>
<text text-anchor="start" x="2686.6338" y="-364.1" font-family="Times,serif" font-size="14.00" fill="#000000"> &#160;&#160;&#160;&#160;getProposalState(proposalId: uint256): ProposalState</text>
<text text-anchor="start" x="2686.6338" y="-347.3" font-family="Times,serif" font-size="14.00" fill="#000000"> &#160;&#160;&#160;&#160;getReceipt(proposalId: uint256, voter: address): Receipt</text>
<text text-anchor="start" x="2686.6338" y="-330.5" font-family="Times,serif" font-size="14.00" fill="#000000"> &#160;&#160;&#160;&#160;getVotingPower(account: address): (votingPower: uint256)</text>
<text text-anchor="start" x="2686.6338" y="-313.7" font-family="Times,serif" font-size="14.00" fill="#000000"> &#160;&#160;&#160;&#160;governanceParameters(): EnhancedParams</text>
<text text-anchor="start" x="2686.6338" y="-296.9" font-family="Times,serif" font-size="14.00" fill="#000000"> &#160;&#160;&#160;&#160;name(): string</text>
<text text-anchor="start" x="2686.6338" y="-280.1" font-family="Times,serif" font-size="14.00" fill="#000000"> &#160;&#160;&#160;&#160;proposalCount(): (count: uint256)</text>
<text text-anchor="start" x="2686.6338" y="-263.3" font-family="Times,serif" font-size="14.00" fill="#000000"> &#160;&#160;&#160;&#160;proposals(): (proposalWrapper: ProposalWrapper[])</text>
<text text-anchor="start" x="2686.6338" y="-246.5" font-family="Times,serif" font-size="14.00" fill="#000000"> &#160;&#160;&#160;&#160;votingPeriod(): uint256</text>
</g>
<!-- 4struct0 -->
<g id="node7" class="node">
<title>4struct0</title>
<polygon fill="#f2f2f2" stroke="#000000" points="2069.9614,-17.3 2069.9614,-184.5 2237.9916,-184.5 2237.9916,-17.3 2069.9614,-17.3"/>
<text text-anchor="middle" x="2153.9765" y="-167.9" font-family="Times,serif" font-size="14.00" fill="#000000">&lt;&lt;struct&gt;&gt;</text>
<text text-anchor="middle" x="2153.9765" y="-151.1" font-family="Times,serif" font-size="14.00" fill="#000000">Proposal</text>
<polyline fill="none" stroke="#000000" points="2069.9614,-142.9 2237.9916,-142.9 "/>
<text text-anchor="start" x="2077.9614" y="-126.3" font-family="Times,serif" font-size="14.00" fill="#000000">actionsLength: uint256</text>
<text text-anchor="start" x="2077.9614" y="-109.5" font-family="Times,serif" font-size="14.00" fill="#000000">startBlockOrTime: uint256</text>
<text text-anchor="start" x="2077.9614" y="-92.7" font-family="Times,serif" font-size="14.00" fill="#000000">endBlockOrTime: uint256</text>
<text text-anchor="start" x="2077.9614" y="-75.9" font-family="Times,serif" font-size="14.00" fill="#000000">votesFor: uint256</text>
<text text-anchor="start" x="2077.9614" y="-59.1" font-family="Times,serif" font-size="14.00" fill="#000000">votesAgainst: uint256</text>
<text text-anchor="start" x="2077.9614" y="-42.3" font-family="Times,serif" font-size="14.00" fill="#000000">votesAbstain: uint256</text>
<text text-anchor="start" x="2077.9614" y="-25.5" font-family="Times,serif" font-size="14.00" fill="#000000">executed: bool</text>
</g>
<!-- 4struct0&#45;&gt;4 -->
<g id="edge2" class="edge">
<title>4struct0&#45;&gt;4</title>
<path fill="none" stroke="#000000" d="M2223.0199,-184.676C2230.6232,-191.0803 2238.6457,-196.9328 2246.9765,-201.8 2373.976,-275.9982 2532.1026,-317.0688 2666.3978,-339.7943"/>
<polygon fill="#000000" stroke="#000000" points="2666.6528,-339.8365 2673.227,-336.8734 2678.4907,-341.8022 2671.9166,-344.7654 2666.6528,-339.8365"/>
</g>
<!-- 4struct1 -->
<g id="node8" class="node">
<title>4struct1</title>
<polygon fill="#f2f2f2" stroke="#000000" points="2256.4701,-59.3 2256.4701,-142.5 2583.4829,-142.5 2583.4829,-59.3 2256.4701,-59.3"/>
<text text-anchor="middle" x="2419.9765" y="-125.9" font-family="Times,serif" font-size="14.00" fill="#000000">&lt;&lt;struct&gt;&gt;</text>
<text text-anchor="middle" x="2419.9765" y="-109.1" font-family="Times,serif" font-size="14.00" fill="#000000">ProposalWrapper</text>
<polyline fill="none" stroke="#000000" points="2256.4701,-100.9 2583.4829,-100.9 "/>
<text text-anchor="start" x="2264.4701" y="-84.3" font-family="Times,serif" font-size="14.00" fill="#000000">proposal: Proposal</text>
<text text-anchor="start" x="2264.4701" y="-67.5" font-family="Times,serif" font-size="14.00" fill="#000000">proposedAction: IGovernanceVoting.ProposedAction[]</text>
</g>
<!-- 4struct1&#45;&gt;4 -->
<g id="edge3" class="edge">
<title>4struct1&#45;&gt;4</title>
<path fill="none" stroke="#000000" d="M2488.1703,-142.677C2519.6799,-161.4591 2557.8305,-183.4725 2592.9765,-201.8 2616.9528,-214.3029 2642.0465,-226.8891 2667.3467,-239.2372"/>
<polygon fill="#000000" stroke="#000000" points="2667.4074,-239.2667 2674.5525,-238.2929 2678.1995,-244.5137 2671.0545,-245.4876 2667.4074,-239.2667"/>
</g>
<!-- 4struct2 -->
<g id="node9" class="node">
<title>4struct2</title>
<polygon fill="#f2f2f2" stroke="#000000" points="2601.5185,-50.9 2601.5185,-150.9 2848.4345,-150.9 2848.4345,-50.9 2601.5185,-50.9"/>
<text text-anchor="middle" x="2724.9765" y="-134.3" font-family="Times,serif" font-size="14.00" fill="#000000">&lt;&lt;struct&gt;&gt;</text>
<text text-anchor="middle" x="2724.9765" y="-117.5" font-family="Times,serif" font-size="14.00" fill="#000000">Receipt</text>
<polyline fill="none" stroke="#000000" points="2601.5185,-109.3 2848.4345,-109.3 "/>
<text text-anchor="start" x="2609.5185" y="-92.7" font-family="Times,serif" font-size="14.00" fill="#000000">hasVoted: bool</text>
<text text-anchor="start" x="2609.5185" y="-75.9" font-family="Times,serif" font-size="14.00" fill="#000000">votes: uint96</text>
<text text-anchor="start" x="2609.5185" y="-59.1" font-family="Times,serif" font-size="14.00" fill="#000000">voteType: IGovernanceVoting.VoteType</text>
</g>
<!-- 4struct2&#45;&gt;4 -->
<g id="edge4" class="edge">
<title>4struct2&#45;&gt;4</title>
<path fill="none" stroke="#000000" d="M2767.6735,-151.1207C2786.6546,-173.4465 2810.0344,-200.946 2833.6918,-228.7722"/>
<polygon fill="#000000" stroke="#000000" points="2833.9467,-229.072 2840.8806,-231.0523 2841.7195,-238.2144 2834.7856,-236.2341 2833.9467,-229.072"/>
</g>
<!-- 4struct3 -->
<g id="node10" class="node">
<title>4struct3</title>
<polygon fill="#f2f2f2" stroke="#000000" points="2866.4039,-42.5 2866.4039,-159.3 3037.5491,-159.3 3037.5491,-42.5 2866.4039,-42.5"/>
<text text-anchor="middle" x="2951.9765" y="-142.7" font-family="Times,serif" font-size="14.00" fill="#000000">&lt;&lt;struct&gt;&gt;</text>
<text text-anchor="middle" x="2951.9765" y="-125.9" font-family="Times,serif" font-size="14.00" fill="#000000">GovernanceParameters</text>
<polyline fill="none" stroke="#000000" points="2866.4039,-117.7 3037.5491,-117.7 "/>
<text text-anchor="start" x="2874.4039" y="-101.1" font-family="Times,serif" font-size="14.00" fill="#000000">strategy: address</text>
<text text-anchor="start" x="2874.4039" y="-84.3" font-family="Times,serif" font-size="14.00" fill="#000000">proposalThreshold: uint256</text>
<text text-anchor="start" x="2874.4039" y="-67.5" font-family="Times,serif" font-size="14.00" fill="#000000">quorumThreshold: uint256</text>
<text text-anchor="start" x="2874.4039" y="-50.7" font-family="Times,serif" font-size="14.00" fill="#000000">timeType: TimeType</text>
</g>
<!-- 4struct3&#45;&gt;4 -->
<g id="edge5" class="edge">
<title>4struct3&#45;&gt;4</title>
<path fill="none" stroke="#000000" d="M2951.9765,-159.4943C2951.9765,-179.3639 2951.9765,-202.5067 2951.9765,-225.9978"/>
<polygon fill="#000000" stroke="#000000" points="2951.9766,-226.2984 2955.9765,-232.2985 2951.9765,-238.2984 2947.9765,-232.2984 2951.9766,-226.2984"/>
</g>
<!-- 4struct4 -->
<g id="node11" class="node">
<title>4struct4</title>
<polygon fill="#f2f2f2" stroke="#000000" points="3055.1619,-50.9 3055.1619,-150.9 3248.7911,-150.9 3248.7911,-50.9 3055.1619,-50.9"/>
<text text-anchor="middle" x="3151.9765" y="-134.3" font-family="Times,serif" font-size="14.00" fill="#000000">&lt;&lt;struct&gt;&gt;</text>
<text text-anchor="middle" x="3151.9765" y="-117.5" font-family="Times,serif" font-size="14.00" fill="#000000">EnhancedParams</text>
<polyline fill="none" stroke="#000000" points="3055.1619,-109.3 3248.7911,-109.3 "/>
<text text-anchor="start" x="3063.1619" y="-92.7" font-family="Times,serif" font-size="14.00" fill="#000000">params: GovernanceParameters</text>
<text text-anchor="start" x="3063.1619" y="-75.9" font-family="Times,serif" font-size="14.00" fill="#000000">name: string</text>
<text text-anchor="start" x="3063.1619" y="-59.1" font-family="Times,serif" font-size="14.00" fill="#000000">version: string</text>
</g>
<!-- 4struct4&#45;&gt;4 -->
<g id="edge6" class="edge">
<title>4struct4&#45;&gt;4</title>
<path fill="none" stroke="#000000" d="M3114.358,-151.1207C3097.7073,-173.3494 3077.2147,-200.707 3056.4639,-228.4093"/>
<polygon fill="#000000" stroke="#000000" points="3056.3135,-228.6101 3055.9178,-235.8103 3049.1193,-238.2144 3049.515,-231.0142 3056.3135,-228.6101"/>
</g>
<!-- 4enum0 -->
<g id="node12" class="node">
<title>4enum0</title>
<polygon fill="#f2f2f2" stroke="#000000" points="3266.4835,-.5 3266.4835,-201.3 3359.4695,-201.3 3359.4695,-.5 3266.4835,-.5"/>
<text text-anchor="middle" x="3312.9765" y="-184.7" font-family="Times,serif" font-size="14.00" fill="#000000">&lt;&lt;enum&gt;&gt;</text>
<text text-anchor="middle" x="3312.9765" y="-167.9" font-family="Times,serif" font-size="14.00" fill="#000000">ProposalState</text>
<polyline fill="none" stroke="#000000" points="3266.4835,-159.7 3359.4695,-159.7 "/>
<text text-anchor="start" x="3274.4835" y="-143.1" font-family="Times,serif" font-size="14.00" fill="#000000">Pending</text>
<text text-anchor="start" x="3274.4835" y="-126.3" font-family="Times,serif" font-size="14.00" fill="#000000">Active</text>
<text text-anchor="start" x="3274.4835" y="-109.5" font-family="Times,serif" font-size="14.00" fill="#000000">Canceled</text>
<text text-anchor="start" x="3274.4835" y="-92.7" font-family="Times,serif" font-size="14.00" fill="#000000">Qualified</text>
<text text-anchor="start" x="3274.4835" y="-75.9" font-family="Times,serif" font-size="14.00" fill="#000000">Defeated</text>
<text text-anchor="start" x="3274.4835" y="-59.1" font-family="Times,serif" font-size="14.00" fill="#000000">Succeeded</text>
<text text-anchor="start" x="3274.4835" y="-42.3" font-family="Times,serif" font-size="14.00" fill="#000000">Queued</text>
<text text-anchor="start" x="3274.4835" y="-25.5" font-family="Times,serif" font-size="14.00" fill="#000000">Expired</text>
<text text-anchor="start" x="3274.4835" y="-8.7" font-family="Times,serif" font-size="14.00" fill="#000000">Executed</text>
</g>
<!-- 4enum0&#45;&gt;4 -->
<g id="edge7" class="edge">
<title>4enum0&#45;&gt;4</title>
<path fill="none" stroke="#000000" d="M3266.131,-192.8615C3263.5189,-195.9867 3260.8005,-198.981 3257.9765,-201.8 3247.9499,-211.8089 3237.1944,-221.3774 3225.9275,-230.5022"/>
<polygon fill="#000000" stroke="#000000" points="3225.7676,-230.6283 3223.5357,-237.4854 3216.3477,-238.0625 3218.5796,-231.2055 3225.7676,-230.6283"/>
</g>
<!-- 4enum1 -->
<g id="node13" class="node">
<title>4enum1</title>
<polygon fill="#f2f2f2" stroke="#000000" points="3377.8727,-59.3 3377.8727,-142.5 3470.0803,-142.5 3470.0803,-59.3 3377.8727,-59.3"/>
<text text-anchor="middle" x="3423.9765" y="-125.9" font-family="Times,serif" font-size="14.00" fill="#000000">&lt;&lt;enum&gt;&gt;</text>
<text text-anchor="middle" x="3423.9765" y="-109.1" font-family="Times,serif" font-size="14.00" fill="#000000">TimeType</text>
<polyline fill="none" stroke="#000000" points="3377.8727,-100.9 3470.0803,-100.9 "/>
<text text-anchor="start" x="3385.8727" y="-84.3" font-family="Times,serif" font-size="14.00" fill="#000000">Blocknumber</text>
<text text-anchor="start" x="3385.8727" y="-67.5" font-family="Times,serif" font-size="14.00" fill="#000000">Timestamp</text>
</g>
<!-- 4enum1&#45;&gt;4 -->
<g id="edge8" class="edge">
<title>4enum1&#45;&gt;4</title>
<path fill="none" stroke="#000000" d="M3408.6313,-142.6209C3399.4515,-162.7479 3386.0192,-185.9114 3367.9765,-201.8 3329.669,-235.5342 3283.658,-262.8889 3236.412,-284.918"/>
<polygon fill="#000000" stroke="#000000" points="3236.2674,-284.984 3232.4715,-291.1152 3225.352,-289.9694 3229.1479,-283.8382 3236.2674,-284.984"/>
</g>
<!-- 5 -->
<g id="node14" class="node">
<title>5</title>
<polygon fill="#f2f2f2" stroke="#000000" points="3488.2208,-30.1 3488.2208,-171.7 3993.7322,-171.7 3993.7322,-30.1 3488.2208,-30.1"/>
<text text-anchor="middle" x="3740.9765" y="-155.1" font-family="Times,serif" font-size="14.00" fill="#000000">&lt;&lt;Interface&gt;&gt;</text>
<text text-anchor="middle" x="3740.9765" y="-138.3" font-family="Times,serif" font-size="14.00" fill="#000000">IGovernanceUpgrade</text>
<polyline fill="none" stroke="#000000" points="3488.2208,-130.1 3993.7322,-130.1 "/>
<text text-anchor="middle" x="3740.9765" y="-113.5" font-family="Times,serif" font-size="14.00" fill="#000000"> </text>
<polyline fill="none" stroke="#000000" points="3488.2208,-105.3 3993.7322,-105.3 "/>
<text text-anchor="start" x="3496.2208" y="-88.7" font-family="Times,serif" font-size="14.00" fill="#000000">External:</text>
<text text-anchor="start" x="3496.2208" y="-71.9" font-family="Times,serif" font-size="14.00" fill="#000000"> &#160;&#160;&#160;&#160;updateThresholds(newProposalThreshold: uint256, newQuorumThreshold: uint256)</text>
<text text-anchor="start" x="3496.2208" y="-55.1" font-family="Times,serif" font-size="14.00" fill="#000000"> &#160;&#160;&#160;&#160;upgradeImplementation(newImplementation: address)</text>
<text text-anchor="start" x="3496.2208" y="-38.3" font-family="Times,serif" font-size="14.00" fill="#000000"> &#160;&#160;&#160;&#160;upgradeStrategy(newStrategy: address)</text>
</g>
<!-- 6 -->
<g id="node15" class="node">
<title>6</title>
<polygon fill="#f2f2f2" stroke="#000000" points="3834.3614,-288.7 3834.3614,-447.1 4405.5916,-447.1 4405.5916,-288.7 3834.3614,-288.7"/>
<text text-anchor="middle" x="4119.9765" y="-430.5" font-family="Times,serif" font-size="14.00" fill="#000000">&lt;&lt;Interface&gt;&gt;</text>
<text text-anchor="middle" x="4119.9765" y="-413.7" font-family="Times,serif" font-size="14.00" fill="#000000">IGovernanceVoting</text>
<polyline fill="none" stroke="#000000" points="3834.3614,-405.5 4405.5916,-405.5 "/>
<text text-anchor="middle" x="4119.9765" y="-388.9" font-family="Times,serif" font-size="14.00" fill="#000000"> </text>
<polyline fill="none" stroke="#000000" points="3834.3614,-380.7 4405.5916,-380.7 "/>
<text text-anchor="start" x="3842.3614" y="-364.1" font-family="Times,serif" font-size="14.00" fill="#000000">External:</text>
<text text-anchor="start" x="3842.3614" y="-347.3" font-family="Times,serif" font-size="14.00" fill="#000000"> &#160;&#160;&#160;&#160;castVote(proposalId: uint256, voteType: VoteType)</text>
<text text-anchor="start" x="3842.3614" y="-330.5" font-family="Times,serif" font-size="14.00" fill="#000000"> &#160;&#160;&#160;&#160;castVoteBySignature(proposalId: uint256, voteType: VoteType, v: uint8, r: bytes32, s: bytes32)</text>
<text text-anchor="start" x="3842.3614" y="-313.7" font-family="Times,serif" font-size="14.00" fill="#000000"> &#160;&#160;&#160;&#160;execute(proposalId: uint256)</text>
<text text-anchor="start" x="3842.3614" y="-296.9" font-family="Times,serif" font-size="14.00" fill="#000000"> &#160;&#160;&#160;&#160;propose(actions: ProposedAction[], description: string): (proposalId: uint256)</text>
</g>
<!-- 6struct0 -->
<g id="node16" class="node">
<title>6struct0</title>
<polygon fill="#f2f2f2" stroke="#000000" points="4011.8741,-50.9 4011.8741,-150.9 4118.0789,-150.9 4118.0789,-50.9 4011.8741,-50.9"/>
<text text-anchor="middle" x="4064.9765" y="-134.3" font-family="Times,serif" font-size="14.00" fill="#000000">&lt;&lt;struct&gt;&gt;</text>
<text text-anchor="middle" x="4064.9765" y="-117.5" font-family="Times,serif" font-size="14.00" fill="#000000">ProposedAction</text>
<polyline fill="none" stroke="#000000" points="4011.8741,-109.3 4118.0789,-109.3 "/>
<text text-anchor="start" x="4019.8741" y="-92.7" font-family="Times,serif" font-size="14.00" fill="#000000">target: address</text>
<text text-anchor="start" x="4019.8741" y="-75.9" font-family="Times,serif" font-size="14.00" fill="#000000">data: bytes</text>
<text text-anchor="start" x="4019.8741" y="-59.1" font-family="Times,serif" font-size="14.00" fill="#000000">value: uint256</text>
</g>
<!-- 6struct0&#45;&gt;6 -->
<g id="edge9" class="edge">
<title>6struct0&#45;&gt;6</title>
<path fill="none" stroke="#000000" d="M4075.3216,-151.1207C4082.5875,-186.3935 4092.5137,-234.5807 4101.1625,-276.5667"/>
<polygon fill="#000000" stroke="#000000" points="4101.2024,-276.7609 4106.3308,-281.8304 4103.6236,-288.5141 4098.4953,-283.4445 4101.2024,-276.7609"/>
</g>
<!-- 6enum0 -->
<g id="node17" class="node">
<title>6enum0</title>
<polygon fill="#f2f2f2" stroke="#000000" points="4135.6347,-50.9 4135.6347,-150.9 4214.3183,-150.9 4214.3183,-50.9 4135.6347,-50.9"/>
<text text-anchor="middle" x="4174.9765" y="-134.3" font-family="Times,serif" font-size="14.00" fill="#000000">&lt;&lt;enum&gt;&gt;</text>
<text text-anchor="middle" x="4174.9765" y="-117.5" font-family="Times,serif" font-size="14.00" fill="#000000">VoteType</text>
<polyline fill="none" stroke="#000000" points="4135.6347,-109.3 4214.3183,-109.3 "/>
<text text-anchor="start" x="4143.6347" y="-92.7" font-family="Times,serif" font-size="14.00" fill="#000000">For</text>
<text text-anchor="start" x="4143.6347" y="-75.9" font-family="Times,serif" font-size="14.00" fill="#000000">Against</text>
<text text-anchor="start" x="4143.6347" y="-59.1" font-family="Times,serif" font-size="14.00" fill="#000000">Abstain</text>
</g>
<!-- 6enum0&#45;&gt;6 -->
<g id="edge10" class="edge">
<title>6enum0&#45;&gt;6</title>
<path fill="none" stroke="#000000" d="M4164.6314,-151.1207C4157.3655,-186.3935 4147.4393,-234.5807 4138.7905,-276.5667"/>
<polygon fill="#000000" stroke="#000000" points="4138.7506,-276.7609 4141.4577,-283.4445 4136.3294,-288.5141 4133.6222,-281.8304 4138.7506,-276.7609"/>
</g>
<!-- 7 -->
<g id="node18" class="node">
<title>7</title>
<polygon fill="#f2f2f2" stroke="#000000" points="4232.75,-21.7 4232.75,-180.1 5465.203,-180.1 5465.203,-21.7 4232.75,-21.7"/>
<text text-anchor="middle" x="4848.9765" y="-163.5" font-family="Times,serif" font-size="14.00" fill="#000000">RigoblockGovernanceFactory</text>
<polyline fill="none" stroke="#000000" points="4232.75,-155.3 5465.203,-155.3 "/>
<text text-anchor="start" x="4240.75" y="-138.7" font-family="Times,serif" font-size="14.00" fill="#000000">Private:</text>
<text text-anchor="start" x="4240.75" y="-121.9" font-family="Times,serif" font-size="14.00" fill="#000000"> &#160;&#160;_parameters: Parameters</text>
<polyline fill="none" stroke="#000000" points="4232.75,-113.7 5465.203,-113.7 "/>
<text text-anchor="start" x="4240.75" y="-97.1" font-family="Times,serif" font-size="14.00" fill="#000000">Private:</text>
<text text-anchor="start" x="4240.75" y="-80.3" font-family="Times,serif" font-size="14.00" fill="#000000"> &#160;&#160;&#160;_isContract(target: address): bool</text>
<text text-anchor="start" x="4240.75" y="-63.5" font-family="Times,serif" font-size="14.00" fill="#000000">External:</text>
<text text-anchor="start" x="4240.75" y="-46.7" font-family="Times,serif" font-size="14.00" fill="#000000"> &#160;&#160;&#160;createGovernance(implementation: address, governanceStrategy: address, proposalThreshold: uint256, quorumThreshold: uint256, timeType: IRigoblockGovernance.TimeType, name: string): (governance: address)</text>
<text text-anchor="start" x="4240.75" y="-29.9" font-family="Times,serif" font-size="14.00" fill="#000000"> &#160;&#160;&#160;parameters(): Parameters</text>
</g>
<!-- 8 -->
<g id="node19" class="node">
<title>8</title>
<polygon fill="#f2f2f2" stroke="#000000" points="5399.3492,-263.5 5399.3492,-472.3 5720.6038,-472.3 5720.6038,-263.5 5399.3492,-263.5"/>
<text text-anchor="middle" x="5559.9765" y="-455.7" font-family="Times,serif" font-size="14.00" fill="#000000">RigoblockGovernanceProxy</text>
<polyline fill="none" stroke="#000000" points="5399.3492,-447.5 5720.6038,-447.5 "/>
<text text-anchor="start" x="5407.3492" y="-430.9" font-family="Times,serif" font-size="14.00" fill="#000000">Internal:</text>
<text text-anchor="start" x="5407.3492" y="-414.1" font-family="Times,serif" font-size="14.00" fill="#000000"> &#160;&#160;_IMPLEMENTATION_SLOT: bytes32</text>
<polyline fill="none" stroke="#000000" points="5399.3492,-405.9 5720.6038,-405.9 "/>
<text text-anchor="start" x="5407.3492" y="-389.3" font-family="Times,serif" font-size="14.00" fill="#000000">Private:</text>
<text text-anchor="start" x="5407.3492" y="-372.5" font-family="Times,serif" font-size="14.00" fill="#000000"> &#160;&#160;&#160;_getImplementation(): (s: ImplementationSlot)</text>
<text text-anchor="start" x="5407.3492" y="-355.7" font-family="Times,serif" font-size="14.00" fill="#000000">External:</text>
<text text-anchor="start" x="5407.3492" y="-338.9" font-family="Times,serif" font-size="14.00" fill="#000000"> &#160;&#160;&#160;&lt;&lt;payable&gt;&gt; null()</text>
<text text-anchor="start" x="5407.3492" y="-322.1" font-family="Times,serif" font-size="14.00" fill="#000000"> &#160;&#160;&#160;&lt;&lt;payable&gt;&gt; null()</text>
<text text-anchor="start" x="5407.3492" y="-305.3" font-family="Times,serif" font-size="14.00" fill="#000000">Public:</text>
<text text-anchor="start" x="5407.3492" y="-288.5" font-family="Times,serif" font-size="14.00" fill="#000000"> &#160;&#160;&#160;&lt;&lt;event&gt;&gt; Upgraded(newImplementation: address)</text>
<text text-anchor="start" x="5407.3492" y="-271.7" font-family="Times,serif" font-size="14.00" fill="#000000"> &#160;&#160;&#160;constructor()</text>
</g>
<!-- 8struct0 -->
<g id="node20" class="node">
<title>8struct0</title>
<polygon fill="#f2f2f2" stroke="#000000" points="5483.3527,-67.7 5483.3527,-134.1 5636.6003,-134.1 5636.6003,-67.7 5483.3527,-67.7"/>
<text text-anchor="middle" x="5559.9765" y="-117.5" font-family="Times,serif" font-size="14.00" fill="#000000">&lt;&lt;struct&gt;&gt;</text>
<text text-anchor="middle" x="5559.9765" y="-100.7" font-family="Times,serif" font-size="14.00" fill="#000000">ImplementationSlot</text>
<polyline fill="none" stroke="#000000" points="5483.3527,-92.5 5636.6003,-92.5 "/>
<text text-anchor="start" x="5491.3527" y="-75.9" font-family="Times,serif" font-size="14.00" fill="#000000">implementation: address</text>
</g>
<!-- 8struct0&#45;&gt;8 -->
<g id="edge11" class="edge">
<title>8struct0&#45;&gt;8</title>
<path fill="none" stroke="#000000" d="M5559.9765,-134.1759C5559.9765,-163.6937 5559.9765,-208.6167 5559.9765,-251.218"/>
<polygon fill="#000000" stroke="#000000" points="5559.9766,-251.4527 5563.9765,-257.4527 5559.9765,-263.4527 5555.9765,-257.4526 5559.9766,-251.4527"/>
</g>
</g>
</svg>
