<?xml version="1.0" encoding="UTF-8" standalone="no"?>
<!DOCTYPE svg PUBLIC "-//W3C//DTD SVG 1.1//EN"
 "http://www.w3.org/Graphics/SVG/1.1/DTD/svg11.dtd">
<!-- Generated by graphviz version 2.40.1 (20161225.0304)
 -->
<!-- Title: UmlClassDiagram Pages: 1 -->
<svg width="978pt" height="584pt"
 viewBox="0.00 0.00 978.35 583.80" xmlns="http://www.w3.org/2000/svg" xmlns:xlink="http://www.w3.org/1999/xlink">
<g id="graph0" class="graph" transform="scale(1 1) rotate(0) translate(4 579.8)">
<title>UmlClassDiagram</title>
<polygon fill="#ffffff" stroke="transparent" points="-4,4 -4,-579.8 974.3536,-579.8 974.3536,4 -4,4"/>
<!-- 0 -->
<g id="node1" class="node">
<title>0</title>
<polygon fill="#f2f2f2" stroke="#000000" points="649.099,-391.7 649.099,-499.7 970.3536,-499.7 970.3536,-391.7 649.099,-391.7"/>
<text text-anchor="middle" x="809.7263" y="-483.1" font-family="Times,serif" font-size="14.00" fill="#000000">&lt;&lt;Interface&gt;&gt;</text>
<text text-anchor="middle" x="809.7263" y="-466.3" font-family="Times,serif" font-size="14.00" fill="#000000">IRigoblockPoolProxy</text>
<polyline fill="none" stroke="#000000" points="649.099,-458.1 970.3536,-458.1 "/>
<text text-anchor="middle" x="809.7263" y="-441.5" font-family="Times,serif" font-size="14.00" fill="#000000"> </text>
<polyline fill="none" stroke="#000000" points="649.099,-433.3 970.3536,-433.3 "/>
<text text-anchor="start" x="657.099" y="-416.7" font-family="Times,serif" font-size="14.00" fill="#000000">Public:</text>
<text text-anchor="start" x="657.099" y="-399.9" font-family="Times,serif" font-size="14.00" fill="#000000"> &#160;&#160;&#160;&lt;&lt;event&gt;&gt; Upgraded(newImplementation: address)</text>
</g>
<!-- 1 -->
<g id="node2" class="node">
<title>1</title>
<polygon fill="#f2f2f2" stroke="#000000" points="0,-316.1 0,-575.3 631.4526,-575.3 631.4526,-316.1 0,-316.1"/>
<text text-anchor="middle" x="315.7263" y="-558.7" font-family="Times,serif" font-size="14.00" fill="#000000">&lt;&lt;Interface&gt;&gt;</text>
<text text-anchor="middle" x="315.7263" y="-541.9" font-family="Times,serif" font-size="14.00" fill="#000000">IRigoblockPoolProxyFactory</text>
<polyline fill="none" stroke="#000000" points="0,-533.7 631.4526,-533.7 "/>
<text text-anchor="middle" x="315.7263" y="-517.1" font-family="Times,serif" font-size="14.00" fill="#000000"> </text>
<polyline fill="none" stroke="#000000" points="0,-508.9 631.4526,-508.9 "/>
<text text-anchor="start" x="8" y="-492.3" font-family="Times,serif" font-size="14.00" fill="#000000">External:</text>
<text text-anchor="start" x="8" y="-475.5" font-family="Times,serif" font-size="14.00" fill="#000000"> &#160;&#160;&#160;&#160;implementation(): address</text>
<text text-anchor="start" x="8" y="-458.7" font-family="Times,serif" font-size="14.00" fill="#000000"> &#160;&#160;&#160;&#160;createPool(name: string, symbol: string, baseToken: address): (newPoolAddress: address, poolId: bytes32)</text>
<text text-anchor="start" x="8" y="-441.9" font-family="Times,serif" font-size="14.00" fill="#000000"> &#160;&#160;&#160;&#160;setImplementation(newImplementation: address)</text>
<text text-anchor="start" x="8" y="-425.1" font-family="Times,serif" font-size="14.00" fill="#000000"> &#160;&#160;&#160;&#160;setRegistry(newRegistry: address)</text>
<text text-anchor="start" x="8" y="-408.3" font-family="Times,serif" font-size="14.00" fill="#000000"> &#160;&#160;&#160;&#160;getRegistry(): address</text>
<text text-anchor="start" x="8" y="-391.5" font-family="Times,serif" font-size="14.00" fill="#000000"> &#160;&#160;&#160;&#160;parameters(): Parameters</text>
<text text-anchor="start" x="8" y="-374.7" font-family="Times,serif" font-size="14.00" fill="#000000">Public:</text>
<text text-anchor="start" x="8" y="-357.9" font-family="Times,serif" font-size="14.00" fill="#000000"> &#160;&#160;&#160;&lt;&lt;event&gt;&gt; PoolCreated(poolAddress: address)</text>
<text text-anchor="start" x="8" y="-341.1" font-family="Times,serif" font-size="14.00" fill="#000000"> &#160;&#160;&#160;&lt;&lt;event&gt;&gt; Upgraded(implementation: address)</text>
<text text-anchor="start" x="8" y="-324.3" font-family="Times,serif" font-size="14.00" fill="#000000"> &#160;&#160;&#160;&lt;&lt;event&gt;&gt; RegistryUpgraded(registry: address)</text>
</g>
<!-- 1struct0 -->
<g id="node3" class="node">
<title>1struct0</title>
<polygon fill="#f2f2f2" stroke="#000000" points="252.721,-133.1 252.721,-249.9 378.7316,-249.9 378.7316,-133.1 252.721,-133.1"/>
<text text-anchor="middle" x="315.7263" y="-233.3" font-family="Times,serif" font-size="14.00" fill="#000000">&lt;&lt;struct&gt;&gt;</text>
<text text-anchor="middle" x="315.7263" y="-216.5" font-family="Times,serif" font-size="14.00" fill="#000000">Parameters</text>
<polyline fill="none" stroke="#000000" points="252.721,-208.3 378.7316,-208.3 "/>
<text text-anchor="start" x="260.721" y="-191.7" font-family="Times,serif" font-size="14.00" fill="#000000">name: string</text>
<text text-anchor="start" x="260.721" y="-174.9" font-family="Times,serif" font-size="14.00" fill="#000000">symbol: bytes8</text>
<text text-anchor="start" x="260.721" y="-158.1" font-family="Times,serif" font-size="14.00" fill="#000000">owner: address</text>
<text text-anchor="start" x="260.721" y="-141.3" font-family="Times,serif" font-size="14.00" fill="#000000">baseToken: address</text>
</g>
<!-- 1struct0&#45;&gt;1 -->
<g id="edge1" class="edge">
<title>1struct0&#45;&gt;1</title>
<path fill="none" stroke="#000000" d="M315.7263,-250.1378C315.7263,-266.4526 315.7263,-284.9125 315.7263,-303.8146"/>
<polygon fill="#000000" stroke="#000000" points="315.7264,-303.9522 319.7263,-309.9522 315.7263,-315.9522 311.7263,-309.9521 315.7264,-303.9522"/>
</g>
<!-- 2 -->
<g id="node4" class="node">
<title>2</title>
<polygon fill="#f2f2f2" stroke="#000000" points="666.8097,-103.9 666.8097,-279.1 952.6429,-279.1 952.6429,-103.9 666.8097,-103.9"/>
<text text-anchor="middle" x="809.7263" y="-262.5" font-family="Times,serif" font-size="14.00" fill="#000000">RigoblockPoolProxy</text>
<polyline fill="none" stroke="#000000" points="666.8097,-254.3 952.6429,-254.3 "/>
<text text-anchor="start" x="674.8097" y="-237.7" font-family="Times,serif" font-size="14.00" fill="#000000">Internal:</text>
<text text-anchor="start" x="674.8097" y="-220.9" font-family="Times,serif" font-size="14.00" fill="#000000"> &#160;&#160;_IMPLEMENTATION_SLOT: bytes32</text>
<polyline fill="none" stroke="#000000" points="666.8097,-212.7 952.6429,-212.7 "/>
<text text-anchor="start" x="674.8097" y="-196.1" font-family="Times,serif" font-size="14.00" fill="#000000">Private:</text>
<text text-anchor="start" x="674.8097" y="-179.3" font-family="Times,serif" font-size="14.00" fill="#000000"> &#160;&#160;&#160;getImplementation(): (s: ImplementationSlot)</text>
<text text-anchor="start" x="674.8097" y="-162.5" font-family="Times,serif" font-size="14.00" fill="#000000">External:</text>
<text text-anchor="start" x="674.8097" y="-145.7" font-family="Times,serif" font-size="14.00" fill="#000000"> &#160;&#160;&#160;&lt;&lt;payable&gt;&gt; null()</text>
<text text-anchor="start" x="674.8097" y="-128.9" font-family="Times,serif" font-size="14.00" fill="#000000">Public:</text>
<text text-anchor="start" x="674.8097" y="-112.1" font-family="Times,serif" font-size="14.00" fill="#000000"> &#160;&#160;&#160;constructor()</text>
</g>
<!-- 2&#45;&gt;0 -->
<g id="edge3" class="edge">
<title>2&#45;&gt;0</title>
<path fill="none" stroke="#000000" stroke-dasharray="5,2" d="M809.7263,-279.3372C809.7263,-305.8635 809.7263,-334.9199 809.7263,-361.2222"/>
<polygon fill="none" stroke="#000000" points="799.2264,-361.5841 809.7263,-391.5841 820.2264,-361.5842 799.2264,-361.5841"/>
</g>
<!-- 2&#45;&gt;1 -->
<g id="edge4" class="edge">
<title>2&#45;&gt;1</title>
<path fill="none" stroke="#000000" stroke-dasharray="5,2" d="M666.5093,-265.1958C638.2438,-279.7406 607.7621,-295.4257 576.9841,-311.2633"/>
<polygon fill="#000000" stroke="#000000" points="575.1532,-308.2692 567.8628,-315.9569 578.3561,-314.4935 575.1532,-308.2692"/>
</g>
<!-- 2struct0 -->
<g id="node5" class="node">
<title>2struct0</title>
<polygon fill="#f2f2f2" stroke="#000000" points="733.1025,-.5 733.1025,-66.9 886.3501,-66.9 886.3501,-.5 733.1025,-.5"/>
<text text-anchor="middle" x="809.7263" y="-50.3" font-family="Times,serif" font-size="14.00" fill="#000000">&lt;&lt;struct&gt;&gt;</text>
<text text-anchor="middle" x="809.7263" y="-33.5" font-family="Times,serif" font-size="14.00" fill="#000000">ImplementationSlot</text>
<polyline fill="none" stroke="#000000" points="733.1025,-25.3 886.3501,-25.3 "/>
<text text-anchor="start" x="741.1025" y="-8.7" font-family="Times,serif" font-size="14.00" fill="#000000">implementation: address</text>
</g>
<!-- 2struct0&#45;&gt;2 -->
<g id="edge2" class="edge">
<title>2struct0&#45;&gt;2</title>
<path fill="none" stroke="#000000" d="M809.7263,-67.1653C809.7263,-74.6913 809.7263,-83.054 809.7263,-91.7827"/>
<polygon fill="#000000" stroke="#000000" points="809.7264,-91.8683 813.7263,-97.8683 809.7263,-103.8683 805.7263,-97.8682 809.7264,-91.8683"/>
</g>
</g>
</svg>
